<svg width="117" height="115" viewBox="0 0 117 115" fill="none" xmlns="http://www.w3.org/2000/svg">
<mask id="mask0_118_2773" style="mask-type:luminance" maskUnits="userSpaceOnUse" x="0" y="0" width="117" height="115">
<path d="M58.0424 115C90.0984 115 116.085 89.2563 116.085 57.5C116.085 25.7436 90.0984 0 58.0424 0C25.9865 0 0 25.7436 0 57.5C0 89.2563 25.9865 115 58.0424 115Z" fill="white"/>
</mask>
<g mask="url(#mask0_118_2773)">
<path d="M58.0424 115C90.0984 115 116.085 89.2563 116.085 57.5C116.085 25.7436 90.0984 0 58.0424 0C25.9865 0 0 25.7436 0 57.5C0 89.2563 25.9865 115 58.0424 115Z" fill="#8FC3D8"/>
</g>
<mask id="mask1_118_2773" style="mask-type:luminance" maskUnits="userSpaceOnUse" x="0" y="0" width="117" height="115">
<path d="M58.0424 115C90.0984 115 116.085 89.2563 116.085 57.5C116.085 25.7436 90.0984 0 58.0424 0C25.9865 0 0 25.7436 0 57.5C0 89.2563 25.9865 115 58.0424 115Z" fill="white"/>
</mask>
<g mask="url(#mask1_118_2773)">
<path d="M17.8222 115H98.2631C98.2631 115 102.023 95.4711 98.2631 90.6574C93.8383 84.9922 70.2602 83.4703 70.2602 83.4703H45.8238C45.8238 83.4703 22.247 84.9922 17.8209 90.6574C14.0626 95.4699 17.8222 115 17.8222 115Z" fill="#FC611F"/>
<path d="M58.0419 83.4703H45.8237C45.8237 83.4703 45.9024 94.2913 58.0419 103.19C70.1839 94.2913 70.2588 83.4703 70.2588 83.4703H58.0419Z" fill="white"/>
<path d="M80.062 49.6059C78.4063 48.5984 75.9749 50.5392 74.6341 53.9416C73.292 57.344 73.5473 60.9187 75.2029 61.9262C76.8586 62.9325 79.29 60.993 80.6308 57.5906C81.9729 54.1869 81.7164 50.6121 80.062 49.6059Z" fill="#FEE69F"/>
<path d="M36.0239 49.6059C37.6796 48.5984 40.111 50.5392 41.4531 53.9416C42.7938 57.344 42.5412 60.9187 40.883 61.9262C39.226 62.9325 36.7971 60.993 35.4551 57.5906C34.113 54.1869 34.3669 50.6121 36.0239 49.6059Z" fill="#FEE69F"/>
<path d="M68.1387 59.5438H47.9456L45.824 83.47C45.824 86.1165 51.2938 88.2623 58.0422 88.2623C64.7905 88.2623 70.2591 86.1165 70.2591 83.47L68.1387 59.5438Z" fill="#FEE69F"/>
<path d="M80.5391 43.5305C80.5391 59.2847 70.4667 77.074 58.0415 77.074C45.6164 77.074 35.5439 59.2847 35.5439 43.5305C35.5439 27.7775 45.6164 20.0231 58.0415 20.0231C70.4667 20.0231 80.5391 27.7775 80.5391 43.5305Z" fill="#FEE69F"/>
<path opacity="0.4" d="M58.0412 20.0231C45.6161 20.0231 35.5449 27.7775 35.5449 43.5305C35.5449 59.2847 45.6173 77.074 58.0412 77.074V20.0231Z" fill="white"/>
<path opacity="0.1" d="M58.0429 77.0741C53.9622 77.0741 50.1391 75.1471 46.8392 72.0126L46.7224 73.3258C50.049 76.5307 53.9114 78.5118 58.0429 78.5118C62.1707 78.5118 66.0356 76.5446 69.3622 73.3434L69.2441 72.0139C65.9455 75.1484 62.1224 77.0741 58.0429 77.0741Z" fill="black"/>
<path d="M79.2951 34.5723C79.2951 34.5723 79.2329 34.3647 79.1148 33.9748C78.9764 33.5912 78.871 33 78.5574 32.3007C78.4114 31.946 78.2501 31.5535 78.0749 31.1246C77.8654 30.7133 77.6381 30.2668 77.3956 29.7913C76.8827 28.8517 76.2199 27.8304 75.3717 26.8065C74.5058 25.8015 73.4939 24.7588 72.2636 23.8418C71.0637 22.8846 69.6455 22.0683 68.1117 21.3916C66.5817 20.6923 64.8981 20.2181 63.1726 19.8734C61.4344 19.525 59.6632 19.4206 57.8488 19.4017C56.1284 19.4168 54.2734 19.6294 52.5618 19.9602C50.8363 20.3338 49.1832 20.8922 47.652 21.5828C46.141 22.3161 44.7393 23.1525 43.561 24.1387C42.949 24.6016 42.4323 25.1437 41.9015 25.6267C41.4305 26.1701 40.9264 26.6493 40.5354 27.1876C39.705 28.2253 39.0701 29.2656 38.5839 30.2177C38.3528 30.702 38.1179 31.1422 37.9376 31.5674C37.7713 31.9963 37.6176 32.3912 37.4792 32.7472C37.1872 33.4528 37.0856 34.0515 36.9574 34.4364C36.8482 34.8276 36.7898 35.0377 36.7898 35.0377C36.932 34.7622 37.0882 34.4968 37.2774 34.2629C37.6049 34.9911 38.1598 35.7949 38.9737 36.7056C39.1222 35.9018 39.4396 35.2503 39.8662 34.6868C40.2103 35.4087 40.7842 36.2024 41.6171 37.0955C41.7466 36.2892 42.0488 35.6301 42.464 35.0591C42.8233 35.7748 43.4112 36.5521 44.2632 37.4275C44.3762 36.6175 44.6644 35.9534 45.0656 35.371C45.4414 36.0792 46.0458 36.8439 46.9168 37.6992C47.012 36.8892 47.2838 36.2163 47.6723 35.6264C48.0621 36.3244 48.6842 37.0779 49.5705 37.9143C49.6466 37.1005 49.9057 36.4225 50.2789 35.8251C50.6852 36.5156 51.3252 37.2552 52.2304 38.0716C52.2901 37.2565 52.5301 36.5735 52.892 35.9685C53.3122 36.649 53.9687 37.3747 54.8917 38.1722C54.9349 37.3596 55.1571 36.6666 55.505 36.0527C55.9405 36.7232 56.6121 37.4364 57.5542 38.2112C57.5771 37.3961 57.7866 36.7018 58.1193 36.0804C58.57 36.742 59.2582 37.4389 60.2168 38.1961C60.2219 37.3798 60.4148 36.6817 60.7348 36.054C61.2021 36.7056 61.9017 37.3898 62.8755 38.1231C62.8628 37.308 63.0431 36.6049 63.3504 35.9697C63.829 36.6112 64.5464 37.2754 65.5368 37.9885C65.5063 37.1735 65.6701 36.4678 65.9621 35.8251C66.4573 36.4565 67.1886 37.1068 68.1955 37.7973C68.146 36.9835 68.2945 36.2729 68.5713 35.6251C69.0805 36.2439 69.8258 36.8791 70.8491 37.5483C70.7818 36.7345 70.9126 36.0226 71.1767 35.3698C71.6985 35.9773 72.4604 36.5974 73.4977 37.2439C73.4126 36.4313 73.5294 35.7169 73.7783 35.0578C74.3128 35.6566 75.0873 36.2565 76.1386 36.8804C76.0358 36.0703 76.1374 35.3534 76.3723 34.6893C76.9208 35.2754 77.7092 35.859 78.777 36.459C78.6552 35.6515 78.739 34.9308 78.9612 34.2616C79.0615 34.3673 79.1783 34.4691 79.2951 34.5723Z" fill="#8F6C08"/>
</g>
</svg>
